<svg width="28" height="28" viewBox="0 0 28 28" fill="none" xmlns="http://www.w3.org/2000/svg">
<rect width="28" height="28" transform="translate(0.5 0.5)" fill="white"/>
<path d="M4.53958 20.2904V8.61444V8.23779H5.66953L13.2025 9.74437L15.4624 21.797L14.7091 25.9401L4.53958 20.2904Z" fill="white"/>
<path fill-rule="evenodd" clip-rule="evenodd" d="M4.16468 9.96039C4.18528 9.76672 4.35898 9.62642 4.55266 9.64703C5.49026 9.74677 6.69224 10.1671 7.89636 11.0407C8.054 11.1551 8.08907 11.3756 7.97469 11.5332C7.86032 11.6909 7.6398 11.726 7.48215 11.6116C6.3675 10.8028 5.28085 10.4338 4.47805 10.3484C4.28437 10.3278 4.14407 10.1541 4.16468 9.96039ZM9.22777 12.7235C9.37786 12.5994 9.60015 12.6204 9.72428 12.7705C11.6218 15.0648 13.1554 18.4537 13.1554 24.2801C13.1554 24.4748 12.9975 24.6327 12.8028 24.6327C12.608 24.6327 12.4501 24.4748 12.4501 24.2801C12.4501 18.5932 10.959 15.3701 9.18076 13.22C9.05663 13.0699 9.07768 12.8476 9.22777 12.7235Z" fill="url(#paint0_linear_543_2)"/>
<path fill-rule="evenodd" clip-rule="evenodd" d="M4.17323 12.0281C4.22046 11.8391 4.41193 11.7242 4.60088 11.7715C5.96063 12.1114 8.04918 13.367 9.51424 15.9975C9.609 16.1676 9.54789 16.3824 9.37773 16.4772C9.20758 16.5719 8.99282 16.5108 8.89805 16.3407C7.52261 13.8711 5.59023 12.7458 4.42982 12.4557C4.24087 12.4085 4.12599 12.217 4.17323 12.0281ZM9.74026 17.2513C9.92164 17.1803 10.1262 17.2698 10.1972 17.4512C10.8153 19.0312 11.2158 20.6402 11.2158 23.0458C11.2158 23.2405 11.0579 23.3984 10.8632 23.3984C10.6684 23.3984 10.5105 23.2405 10.5105 23.0458C10.5105 20.7357 10.1293 19.2137 9.54032 17.7082C9.46937 17.5268 9.55888 17.3222 9.74026 17.2513Z" fill="url(#paint1_linear_543_2)"/>
<path fill-rule="evenodd" clip-rule="evenodd" d="M4.17109 14.682C4.21334 14.4919 4.40173 14.372 4.59185 14.4142C5.50443 14.617 6.54296 15.3995 7.346 16.6385C8.15632 17.8887 8.74723 19.631 8.74723 21.8115C8.74723 22.0063 8.58934 22.1641 8.39457 22.1641C8.1998 22.1641 8.04191 22.0063 8.04191 21.8115C8.04191 19.7602 7.48669 18.1523 6.75414 17.0221C6.0143 15.8807 5.11323 15.2526 4.43885 15.1027C4.24872 15.0605 4.12884 14.8721 4.17109 14.682Z" fill="url(#paint2_linear_543_2)"/>
<path fill-rule="evenodd" clip-rule="evenodd" d="M4.16445 17.5446C4.18383 17.3508 4.35664 17.2094 4.55044 17.2288C5.14219 17.288 6.02597 17.7885 6.42296 19.0616C6.48094 19.2476 6.3772 19.4453 6.19127 19.5033C6.00533 19.5613 5.8076 19.4575 5.74962 19.2716C5.43072 18.2489 4.77058 17.9596 4.48026 17.9306C4.28646 17.9112 4.14507 17.7384 4.16445 17.5446Z" fill="url(#paint3_linear_543_2)"/>
<path fill-rule="evenodd" clip-rule="evenodd" d="M12.1405 3.52984C12.883 3.10515 13.7247 2.88171 14.5813 2.88171C15.4379 2.88171 16.2795 3.10515 17.022 3.52984L25 8.10262V20.0492L14.5804 26.0158L4.16257 20.0492V8.10262L12.1405 3.52984ZM12.4907 4.14207C12.4907 4.1421 12.4908 4.14204 12.4907 4.14207L4.86788 8.5113V19.6403L14.5804 25.203L24.2947 19.6403V8.5113L16.6718 4.14207C16.6718 4.14204 16.6719 4.1421 16.6718 4.14207C16.0362 3.77855 15.3152 3.58702 14.5813 3.58702C13.8474 3.58702 13.1263 3.77855 12.4907 4.14207Z" fill="url(#paint4_linear_543_2)"/>
<path d="M16.8469 3.83595L24.6473 8.30696V19.8448L14.5804 25.6094C14.5804 10.6619 6.47033 8.30699 4.51522 8.30699L12.3156 3.83595C13.0047 3.44182 13.786 3.23436 14.5813 3.23436C15.3766 3.23436 16.1579 3.44182 16.8469 3.83595Z" fill="url(#paint5_linear_543_2)"/>
<defs>
<linearGradient id="paint0_linear_543_2" x1="8.65902" y1="3.0583" x2="8.65902" y2="26.1569" gradientUnits="userSpaceOnUse">
<stop stop-color="#5FC4F1"/>
<stop offset="0.0001" stop-color="#5FC4F1"/>
<stop offset="1" stop-color="#007AFF"/>
</linearGradient>
<linearGradient id="paint1_linear_543_2" x1="8.65902" y1="3.0583" x2="8.65902" y2="26.1569" gradientUnits="userSpaceOnUse">
<stop stop-color="#5FC4F1"/>
<stop offset="0.0001" stop-color="#5FC4F1"/>
<stop offset="1" stop-color="#007AFF"/>
</linearGradient>
<linearGradient id="paint2_linear_543_2" x1="8.65902" y1="3.0583" x2="8.65902" y2="26.1569" gradientUnits="userSpaceOnUse">
<stop stop-color="#5FC4F1"/>
<stop offset="0.0001" stop-color="#5FC4F1"/>
<stop offset="1" stop-color="#007AFF"/>
</linearGradient>
<linearGradient id="paint3_linear_543_2" x1="8.65902" y1="3.0583" x2="8.65902" y2="26.1569" gradientUnits="userSpaceOnUse">
<stop stop-color="#5FC4F1"/>
<stop offset="0.0001" stop-color="#5FC4F1"/>
<stop offset="1" stop-color="#007AFF"/>
</linearGradient>
<linearGradient id="paint4_linear_543_2" x1="14.5813" y1="2.88171" x2="14.5813" y2="26.0158" gradientUnits="userSpaceOnUse">
<stop stop-color="#5FC4F1"/>
<stop offset="1" stop-color="#007AFF"/>
</linearGradient>
<linearGradient id="paint5_linear_543_2" x1="14.5813" y1="2.88171" x2="14.5813" y2="26.0158" gradientUnits="userSpaceOnUse">
<stop stop-color="#5FC4F1"/>
<stop offset="1" stop-color="#007AFF"/>
</linearGradient>
</defs>
</svg>
